<svg xmlns="http://www.w3.org/2000/svg" width="560" height="400" viewBox="0 0 560 400" fill="none">
  <!-- Code editor mock -->
  <rect width="560" height="400" rx="16" fill="#18181B"/>
  <!-- Title bar -->
  <rect width="560" height="40" rx="16" fill="#27272A"/>
  <rect y="24" width="560" height="16" fill="#27272A"/>
  <circle cx="24" cy="20" r="6" fill="#EF4444"/>
  <circle cx="44" cy="20" r="6" fill="#F59E0B"/>
  <circle cx="64" cy="20" r="6" fill="#22C55E"/>
  <!-- Code lines -->
  <rect x="32" y="64" width="120" height="12" rx="4" fill="#3B82F6" opacity="0.7"/>
  <rect x="160" y="64" width="80" height="12" rx="4" fill="#A78BFA" opacity="0.5"/>
  <rect x="32" y="92" width="60" height="12" rx="4" fill="#F472B6" opacity="0.6"/>
  <rect x="100" y="92" width="200" height="12" rx="4" fill="#A1A1AA" opacity="0.3"/>
  <rect x="48" y="120" width="180" height="12" rx="4" fill="#34D399" opacity="0.5"/>
  <rect x="236" y="120" width="100" height="12" rx="4" fill="#FBBF24" opacity="0.4"/>
  <rect x="48" y="148" width="140" height="12" rx="4" fill="#A1A1AA" opacity="0.3"/>
  <rect x="196" y="148" width="60" height="12" rx="4" fill="#3B82F6" opacity="0.5"/>
  <rect x="48" y="176" width="220" height="12" rx="4" fill="#A78BFA" opacity="0.4"/>
  <rect x="32" y="204" width="80" height="12" rx="4" fill="#F472B6" opacity="0.6"/>
  <rect x="32" y="240" width="160" height="12" rx="4" fill="#3B82F6" opacity="0.7"/>
  <rect x="200" y="240" width="120" height="12" rx="4" fill="#A1A1AA" opacity="0.3"/>
  <rect x="48" y="268" width="100" height="12" rx="4" fill="#34D399" opacity="0.5"/>
  <rect x="156" y="268" width="180" height="12" rx="4" fill="#FBBF24" opacity="0.4"/>
  <rect x="48" y="296" width="200" height="12" rx="4" fill="#A1A1AA" opacity="0.25"/>
  <rect x="32" y="324" width="60" height="12" rx="4" fill="#F472B6" opacity="0.6"/>
  <rect x="32" y="360" width="100" height="12" rx="4" fill="#3B82F6" opacity="0.5"/>
  <rect x="140" y="360" width="60" height="12" rx="4" fill="#A78BFA" opacity="0.4"/>
</svg>
